<?xml version="1.0" encoding="UTF-8" standalone="no"?>
<!-- Created with Inkscape (http://www.inkscape.org/) -->

<svg
   xmlns:dc="http://purl.org/dc/elements/1.1/"
   xmlns:cc="http://creativecommons.org/ns#"
   xmlns:rdf="http://www.w3.org/1999/02/22-rdf-syntax-ns#"
   xmlns:svg="http://www.w3.org/2000/svg"
   xmlns="http://www.w3.org/2000/svg"
   version="1.1"
   width="423.74124"
   height="205"
   id="svg2"
   xml:space="preserve"><metadata
     id="metadata8"><rdf:RDF><cc:Work
         rdf:about=""><dc:format>image/svg+xml</dc:format><dc:type
           rdf:resource="http://purl.org/dc/dcmitype/StillImage" /><dc:title></dc:title></cc:Work></rdf:RDF></metadata><defs
     id="defs6"><clipPath
       id="clipPath18"><path
         d="M 0,792 612,792 612,0 0,0 0,792 z"
         id="path20" /></clipPath></defs><g
     transform="matrix(1.25,0,0,-1.25,-185.31158,625.41276)"
     id="g10"><g
       transform="translate(11.745763,24.330508)"
       id="g14"><g
         clip-path="url(#clipPath18)"
         id="g16"><g
           transform="translate(427.7695,388.3037)"
           id="g22"><path
             d="m 0,0 c 4.93,0 7.262,-2.627 7.262,-5.875 0,-4.304 -4.008,-11.599 -22.985,-11.815 C -14.973,-7.276 -8.135,0 0,0 M 23.727,-0.867 C 22.469,9.634 13.472,15.68 0.113,15.68 c -19.377,0 -29.457,-14.896 -33.488,-30.8 -2.352,-9.296 -5.936,-21.504 -13.104,-21.504 -4.48,0 -5.712,4.48 -5.712,10.08 l 0,18.704 c 0,15.344 -7.504,23.52 -19.264,23.52 -10.416,0 -18.473,-6.272 -23.065,-13.887 l -0.447,12.879 -15.119,0 c 0,0 -1.676,-51.296 -18.593,-51.296 -5.824,0 -7.728,6.615 -7.728,14.112 l 0,37.184 -14.783,0 c -7.84,-8.848 -18.359,-11.535 -26.2,-11.535 -14.112,0 -24.976,9.855 -24.976,26.992 0,8.399 3.248,12.767 7.84,12.767 4.368,0 7.28,-3.919 7.28,-11.872 0,-3.545 0.226,-7.078 -2.104,-8.408 l 0,-4 c 0,0 4.349,-7.586 16.239,-5.258 2.525,5.606 3.898,12.866 3.898,19.234 l 0,4 c -0.365,16.47 -9.079,23.104 -24.753,23.104 -15.237,0 -24.783,-10.499 -26.096,-25.344 l 0,-4 c 0,-16.533 7.729,-30.724 20.472,-37.19 -5.358,-10.72 -12.178,-20.162 -19.288,-27.276 -12.902,15.596 -24.567,36.404 -29.353,77.01 l 0,4 -19.035,0 0,-4 c 8.794,-67.627 35.003,-89.161 41.932,-93.295 3.92,-2.353 7.296,-2.241 10.88,-0.224 5.627,3.199 22.52,20.091 31.885,39.877 8.402,0.022 20.422,2.007 28.131,7.837 l 0,-19.267 c 0,-21.727 8.288,-30.128 21.167,-30.128 10.332,0 18.308,8.054 22.175,17.09 l 0,-15.857 17.809,0 0,18.704 c 0,21.391 7.16,31.807 16.121,31.807 5.039,0 7.168,-3.36 7.168,-11.872 l 0,-17.024 c 0,-14.447 7.615,-22.848 19.039,-22.848 9.387,0 17.813,7.323 21.129,16.582 5.66,-11.702 18.691,-16.582 30.055,-16.582 8.586,0 15.584,1.783 21.037,5.031 l 0,16.238 c -4.614,-3.141 -10.305,-5.813 -18.573,-5.813 -7.884,0 -13.826,2.498 -16.654,8.237 21.647,-0.576 37.692,7.648 37.692,23.744 l 0,4 z"
             id="path24"
             style="fill:#1b896d;fill-opacity:1;fill-rule:nonzero;stroke:none" /></g><g
           transform="translate(271.9507,428.0322)"
           id="g26"><path
             d="m 0,0 0,-4 c 0,-7.057 4.592,-11.76 11.424,-11.76 6.831,0 11.535,5.152 11.535,11.76 l 0,4 L 0,0 z"
             id="path28"
             style="fill:#1b896d;fill-opacity:1;fill-rule:nonzero;stroke:none" /></g><g
           transform="translate(427.7695,392.3037)"
           id="g30"><path
             d="m 0,0 c 4.93,0 7.262,-2.627 7.262,-5.875 0,-4.304 -4.008,-11.599 -22.985,-11.815 C -14.973,-7.276 -8.135,0 0,0 m -13.965,-28.611 c 21.647,-0.576 37.692,7.648 37.692,23.744 0,11.873 -9.164,20.547 -23.614,20.547 -19.377,0 -29.457,-14.896 -33.488,-30.8 -2.352,-9.296 -5.936,-21.504 -13.104,-21.504 -4.48,0 -5.712,4.48 -5.712,10.08 l 0,18.704 c 0,15.344 -7.504,23.52 -19.264,23.52 -10.416,0 -18.473,-6.272 -23.065,-13.887 l -0.447,12.879 -15.119,0 c 0,0 -1.676,-51.296 -18.593,-51.296 -5.824,0 -7.728,6.615 -7.728,14.112 l 0,37.184 -14.783,0 c -7.84,-8.848 -18.359,-11.535 -26.2,-11.535 -14.112,0 -24.976,9.855 -24.976,26.992 0,8.399 3.248,12.767 7.84,12.767 4.368,0 7.28,-3.919 7.28,-11.872 0,-4.521 -1.211,-9.476 -2.104,-12.408 0,0 4.349,-7.586 16.239,-5.258 2.525,5.606 3.898,12.866 3.898,19.234 0,17.137 -8.737,27.104 -24.753,27.104 -16.464,0 -26.096,-12.656 -26.096,-29.344 0,-16.533 7.729,-30.724 20.472,-37.19 -5.358,-10.72 -12.178,-20.162 -19.288,-27.276 -12.902,15.596 -24.567,36.404 -29.353,77.01 l -19.035,0 c 8.794,-67.627 35.003,-89.161 41.932,-93.295 3.92,-2.353 7.296,-2.241 10.88,-0.224 5.627,3.199 22.52,20.091 31.885,39.877 8.402,0.022 20.422,2.007 28.131,7.837 l 0,-19.267 c 0,-21.727 8.288,-30.128 21.167,-30.128 10.332,0 18.308,8.054 22.175,17.09 l 0,-15.857 17.809,0 0,18.704 c 0,21.391 7.16,31.807 16.121,31.807 5.039,0 7.168,-3.36 7.168,-11.872 l 0,-17.024 c 0,-14.447 7.615,-22.848 19.039,-22.848 9.387,0 17.813,7.323 21.129,16.582 5.66,-11.702 18.691,-16.582 30.055,-16.582 8.586,0 15.584,1.783 21.037,5.031 l 0,16.238 c -4.614,-3.141 -10.305,-5.813 -18.573,-5.813 -7.884,0 -13.826,2.498 -16.654,8.237"
             id="path32"
             style="fill:#ffffff;fill-opacity:1;fill-rule:nonzero;stroke:none" /></g><g
           transform="translate(283.3745,416.2725)"
           id="g34"><path
             d="M 0,0 C 6.831,0 11.535,5.151 11.535,11.76 11.535,18.367 6.831,23.407 0,23.407 -6.832,23.407 -11.424,18.815 -11.424,11.76 -11.424,4.703 -6.832,0 0,0"
             id="path36"
             style="fill:#ffffff;fill-opacity:1;fill-rule:nonzero;stroke:none" /></g></g></g></g></svg>